<?xml version="1.0" encoding="UTF-8" standalone="no"?>
<!-- Created with Inkscape (http://www.inkscape.org/) -->

<svg
   xmlns:dc="http://purl.org/dc/elements/1.1/"
   xmlns:cc="http://creativecommons.org/ns#"
   xmlns:rdf="http://www.w3.org/1999/02/22-rdf-syntax-ns#"
   xmlns:svg="http://www.w3.org/2000/svg"
   xmlns="http://www.w3.org/2000/svg"
   xmlns:sodipodi="http://sodipodi.sourceforge.net/DTD/sodipodi-0.dtd"
   xmlns:inkscape="http://www.inkscape.org/namespaces/inkscape"
   width="81.221947mm"
   height="79.958397mm"
   viewBox="0 0 287.7943 283.31715"
   id="svg2"
   version="1.1"
   inkscape:version="0.91 r13725"
   sodipodi:docname="p.svg">
  <defs
     id="defs4" />
  <sodipodi:namedview
     id="base"
     pagecolor="#ffffff"
     bordercolor="#666666"
     borderopacity="1.0"
     inkscape:pageopacity="0.0"
     inkscape:pageshadow="2"
     inkscape:zoom="0.35"
     inkscape:cx="-210.81715"
     inkscape:cy="25.737153"
     inkscape:document-units="px"
     inkscape:current-layer="layer1"
     showgrid="false"
     fit-margin-top="0"
     fit-margin-left="0"
     fit-margin-right="0"
     fit-margin-bottom="0"
     inkscape:window-width="1024"
     inkscape:window-height="1237"
     inkscape:window-x="0"
     inkscape:window-y="25"
     inkscape:window-maximized="1" />
  <metadata
     id="metadata7">
    <rdf:RDF>
      <cc:Work
         rdf:about="">
        <dc:format>image/svg+xml</dc:format>
        <dc:type
           rdf:resource="http://purl.org/dc/dcmitype/StillImage" />
        <dc:title></dc:title>
      </cc:Work>
    </rdf:RDF>
  </metadata>
  <g
     inkscape:label="Layer 1"
     inkscape:groupmode="layer"
     id="layer1"
     transform="translate(-150.10287,-160.49651)">
    <g
       id="g3354">
      <path
         sodipodi:nodetypes="sccccccccccccccccccsscccccssccsscccccs"
         d="m 374.34041,272.62392 c 0,4.33594 -1.52344,8.14453 -4.57032,11.42578 -3.04687,3.16407 -7.03125,5.97657 -11.95312,8.4375 -4.80469,2.34375 -10.19531,4.33594 -16.17188,5.97657 -5.85937,1.64062 -11.71875,2.98828 -17.57812,4.04297 -5.74219,1.05469 -11.13281,1.875 -16.17188,2.46093 -4.92187,0.46875 -8.84765,0.76172 -11.77734,0.87891 l 1.40625,35.85937 40.78125,16.875 -110.91797,1.40625 37.79297,-19.86328 -1.58203,-82.4414 -41.48438,-18.8086 84.55079,2.28516 c 3.16406,0.11719 7.03125,0.35156 11.60156,0.70312 4.6875,0.35157 9.49219,0.9961 14.41406,1.9336 5.03906,0.82031 10.01953,1.99219 14.94141,3.51562 5.03906,1.40625 9.49218,3.28125 13.35937,5.625 3.98437,2.22657 7.20703,4.98047 9.66797,8.26172 2.46094,3.16407 3.69141,6.97266 3.69141,11.42578 z m -24.25782,0 c 0,-2.10937 -0.82031,-3.92578 -2.46093,-5.44922 -1.64063,-1.64062 -3.75,-2.98827 -6.32813,-4.04296 -2.57813,-1.17188 -5.44922,-2.10938 -8.61328,-2.8125 -3.16406,-0.82031 -6.26953,-1.40625 -9.31641,-1.75782 -3.04687,-0.46875 -5.85937,-0.76171 -8.4375,-0.8789 -2.46093,-0.23438 -4.39453,-0.35157 -5.80078,-0.35157 -2.69531,0 -5.44922,0.0586 -8.26172,0.17579 -2.8125,0.11719 -5.5664,0.29297 -8.26171,0.52734 l 0.8789,32.34375 c 1.52344,0.23437 2.92969,0.35156 4.21875,0.35156 l 4.21875,0 c 1.64063,0 3.92578,-0.0586 6.85547,-0.17578 3.04687,-0.23437 6.32812,-0.58594 9.84375,-1.05469 3.63281,-0.58593 7.26563,-1.28906 10.89844,-2.10937 3.75,-0.9375 7.14844,-2.05078 10.19531,-3.33985 3.04687,-1.40625 5.50781,-3.04687 7.38281,-4.92187 1.99219,-1.875 2.98828,-4.04297 2.98828,-6.50391 z"
         id="path3341"
         inkscape:connector-curvature="0"
         style="font-style:normal;font-variant:normal;font-weight:normal;font-stretch:normal;font-size:medium;line-height:125%;font-family:'Fontdiner Swanky';-inkscape-font-specification:'Fontdiner Swanky';text-align:start;letter-spacing:0px;word-spacing:0px;writing-mode:lr-tb;text-anchor:start;fill-opacity:1;stroke:none;stroke-width:1px;stroke-linecap:butt;stroke-linejoin:miter;stroke-opacity:1" />
      <g
         transform="matrix(3.5062657,0,0,3.5212173,-1097.4866,-404.64652)"
         id="text3347"
         style="font-style:normal;font-variant:normal;font-weight:normal;font-stretch:normal;font-size:180px;line-height:125%;font-family:FreeMono;-inkscape-font-specification:'FreeMono, Normal';text-align:start;letter-spacing:0px;word-spacing:0px;writing-mode:lr-tb;text-anchor:start;fill-opacity:1;stroke:none;stroke-width:1px;stroke-linecap:butt;stroke-linejoin:miter;stroke-opacity:1">
        <path
           sodipodi:nodetypes="scscscscsscscsssss"
           inkscape:connector-curvature="0"
           id="path3352"
           d="m 396.85715,160.49649 c 11.52,0 21.24,3.96 29.16,11.88 7.92,7.8 11.88,17.4 11.88,28.8 0,11.04 -4.02,20.46 -12.06,28.26 -8.04,7.68 -17.7,11.52 -28.98,11.52 -11.4,0 -21.12,-3.9 -29.16,-11.7 -7.92,-7.8 -11.88,-17.34 -11.88,-28.62 0,-11.04 3.96,-20.46 11.88,-28.26 8.04,-7.92 17.76,-11.88 29.16,-11.88 z m 0,6.24403 c -9.36,0 -18.48081,3.74798 -25.08081,10.10798 -6.48,6.36 -9.72,14.66799 -9.72,23.78799 0,9.12 3.8104,18.05597 10.2904,24.53597 6.6,6.36 15.15041,9.54 24.51041,9.54 9.24,0 17.73041,-3.18 24.33041,-9.54 6.6,-6.36 10.4704,-15.11597 10.4704,-23.99597 0,-9.48 -3.24,-17.96799 -9.72,-24.32799 -6.48,-6.36 -15.60081,-10.10798 -25.08081,-10.10798 z" />
      </g>
    </g>
  </g>
</svg>
